<?xml version="1.0" standalone="no"?>
<!DOCTYPE svg PUBLIC "-//W3C//DTD SVG 20010904//EN"
 "http://www.w3.org/TR/2001/REC-SVG-20010904/DTD/svg10.dtd">
<svg version="1.0" xmlns="http://www.w3.org/2000/svg"
 width="595.000000pt" height="1188.000000pt" viewBox="0 0 595.000000 1188.000000"
 preserveAspectRatio="xMidYMid meet">

<g transform="translate(0.000000,1188.000000) scale(0.100000,-0.100000)"
fill="#00477f" stroke="none">
<path d="M1525 11871 c-16 -4 -52 -19 -80 -33 -27 -14 -65 -28 -83 -31 -19 -4
-59 -22 -90 -40 -32 -19 -83 -49 -115 -68 -77 -45 -113 -84 -130 -144 -13 -46
-16 -49 -48 -51 -19 0 -71 -20 -116 -42 -81 -41 -82 -43 -98 -94 -8 -28 -15
-62 -15 -74 0 -12 -11 -59 -24 -105 -13 -46 -26 -126 -30 -177 -5 -79 -3 -103
15 -155 22 -67 121 -239 171 -299 l31 -37 -24 -19 -23 -20 28 -101 c50 -180
104 -264 198 -312 33 -17 51 -20 92 -15 52 7 52 7 86 -35 l33 -42 -29 -20
c-16 -12 -92 -82 -169 -157 -184 -179 -615 -523 -835 -665 -58 -38 -128 -86
-156 -107 -30 -22 -62 -38 -78 -38 -15 0 -29 -7 -32 -15 -3 -7 4 -207 16 -442
11 -235 25 -543 30 -683 7 -231 11 -264 35 -355 l28 -100 -21 -110 c-32 -170
-47 -414 -33 -575 9 -114 21 -175 80 -395 101 -381 120 -443 145 -494 28 -54
39 -64 131 -119 101 -59 133 -64 230 -35 44 13 108 28 141 33 148 24 314 85
385 141 53 41 68 73 150 317 38 113 76 216 83 227 8 12 18 39 21 59 4 20 10
35 12 32 3 -2 37 -74 77 -158 70 -148 168 -323 311 -553 108 -175 143 -236
280 -483 91 -163 135 -234 150 -238 15 -4 120 -204 437 -837 430 -857 494
-991 555 -1162 33 -93 36 -111 44 -274 l8 -174 -39 -44 c-156 -178 -295 -465
-352 -727 -30 -137 -32 -444 -5 -581 65 -317 198 -567 427 -796 223 -224 467
-357 780 -425 121 -27 477 -27 600 -1 527 112 946 466 1136 959 153 395 130
857 -61 1238 -223 445 -653 758 -1160 845 -55 9 -103 19 -106 21 -4 2 -19 34
-34 71 -46 115 -99 563 -115 973 -29 705 -42 1173 -45 1580 -5 614 -31 984
-91 1270 -18 90 -24 140 -19 180 11 103 1 96 138 109 67 7 178 16 247 21 69 5
162 15 208 21 45 6 89 8 97 5 20 -7 144 17 220 44 89 31 192 96 199 126 11 44
29 237 28 304 -2 123 -68 310 -156 442 -19 29 -39 72 -44 95 -5 23 -31 72 -57
109 -26 37 -51 78 -56 91 -5 14 -31 34 -64 50 -54 27 -56 29 -92 116 -20 48
-50 107 -67 131 -48 66 -234 238 -299 275 -82 47 -207 206 -272 346 -17 39
-64 120 -103 181 -39 61 -84 140 -101 175 -132 286 -195 415 -205 422 -13 10
-114 3 -261 -18 -149 -21 -630 -31 -753 -16 -120 15 -237 43 -289 69 l-40 21
14 88 c9 54 13 120 9 169 -3 55 0 93 9 121 9 27 11 50 5 74 -5 19 -13 50 -18
69 -12 50 -28 75 -57 97 -24 17 -25 21 -14 52 14 40 6 145 -16 217 -9 27 -24
107 -35 178 -18 119 -18 131 -4 148 20 21 13 42 -18 61 -109 68 -181 118 -253
176 -47 38 -122 87 -166 110 l-81 41 -156 -1 c-86 -1 -170 -4 -187 -8z m165
-38 c-1 -15 -46 -40 -95 -52 -27 -7 -67 -23 -87 -37 -43 -28 -67 -32 -48 -9
25 30 0 28 -62 -6 -109 -58 -139 -72 -145 -66 -3 4 5 15 17 25 l24 19 -32 -5
c-18 -2 -35 -8 -38 -13 -6 -11 -24 -12 -24 -1 0 19 98 65 290 138 37 14 200
19 200 7z m74 -33 c13 -13 -11 -38 -44 -45 -31 -7 -70 -46 -96 -97 -12 -24
-20 -29 -38 -24 -13 3 -39 -3 -61 -14 -21 -11 -40 -18 -43 -16 -5 6 179 191
203 205 21 11 63 6 79 -9z m-184 -48 c0 -19 -79 -86 -126 -107 -38 -17 -198
-175 -188 -185 12 -12 25 -2 49 35 25 38 118 125 134 125 18 0 -47 -86 -85
-112 -33 -23 -36 -38 -6 -38 19 0 92 68 92 86 0 7 9 15 19 19 11 3 36 17 57
31 35 24 64 26 64 5 0 -6 -20 -24 -45 -41 -25 -17 -52 -44 -60 -59 -13 -26
-125 -111 -146 -111 -14 0 -11 -16 6 -30 14 -12 14 -15 -1 -31 -15 -16 -14
-20 8 -49 21 -29 27 -31 64 -26 22 3 74 21 115 41 73 35 122 44 134 25 12 -19
38 -9 154 59 128 76 183 105 221 116 48 14 0 -20 -119 -84 -63 -34 -128 -73
-145 -85 -17 -13 -46 -31 -63 -40 -18 -9 -33 -21 -33 -27 0 -5 10 -3 22 5 20
14 24 14 44 -5 20 -19 24 -19 50 -5 16 8 64 42 107 74 78 59 145 91 166 78 6
-4 31 -46 57 -94 75 -140 110 -194 157 -245 33 -35 46 -59 51 -90 4 -23 9 -57
12 -74 8 -44 -12 -43 -30 1 -8 19 -28 42 -45 50 -28 15 -31 15 -59 -9 -16 -13
-50 -34 -76 -45 -26 -11 -67 -35 -93 -55 -25 -19 -52 -35 -59 -35 -21 0 -96
-100 -89 -119 4 -9 9 -29 12 -46 10 -54 62 -143 119 -207 65 -73 78 -82 101
-70 14 9 14 10 -5 17 -12 3 -29 19 -37 35 -8 16 -32 42 -52 57 -21 15 -42 32
-46 38 -12 15 -1 84 17 104 9 10 14 20 11 22 -3 3 -7 31 -9 63 l-4 58 42 18
c22 10 55 30 71 45 41 36 67 45 133 45 54 0 59 -2 77 -32 10 -18 24 -37 32
-41 7 -4 13 -18 13 -31 0 -13 7 -40 16 -61 8 -20 13 -39 10 -42 -5 -5 -36 26
-52 52 -8 15 -14 16 -30 7 -18 -11 -18 -11 4 -12 12 0 22 -4 22 -9 0 -6 18
-30 39 -55 32 -37 41 -56 46 -101 9 -66 0 -242 -21 -439 -16 -143 -69 -377
-97 -419 -10 -15 -32 -27 -67 -35 -28 -7 -81 -24 -117 -38 -92 -37 -144 -30
-271 34 -53 28 -121 60 -150 73 -37 16 -51 27 -48 38 17 64 16 70 -19 116 -20
25 -33 50 -30 56 4 5 -5 29 -19 54 -30 51 -32 73 -8 91 16 12 15 13 -5 14 -47
0 -99 32 -131 81 -18 27 -39 49 -48 49 -8 0 -26 12 -40 28 -19 21 -23 23 -18
7 4 -11 19 -33 34 -50 14 -16 39 -48 55 -70 16 -22 44 -55 62 -72 18 -18 37
-50 42 -70 5 -21 14 -56 20 -79 6 -22 24 -61 41 -85 16 -24 30 -50 30 -57 0
-33 -172 91 -277 199 -47 49 -93 133 -137 253 -3 10 -9 16 -12 13 -3 -3 8 -36
25 -74 16 -38 35 -82 41 -97 l10 -27 -28 20 c-16 11 -35 27 -42 36 -11 13 -15
14 -29 2 -42 -37 -83 -21 -140 56 -50 67 -77 122 -112 226 -46 136 -24 136
118 1 58 -55 109 -100 113 -100 17 0 33 83 22 115 -6 17 -13 57 -17 91 -6 56
-5 63 19 90 l26 29 19 -24 c18 -23 41 -22 41 2 0 21 -79 141 -110 167 l-30 25
-6 135 -6 135 86 49 c85 49 135 90 123 102 -4 4 -30 -10 -59 -30 -64 -43 -93
-48 -84 -12 8 32 -4 39 -59 30 -53 -7 -79 -41 -64 -82 7 -18 5 -24 -9 -29 -9
-3 -29 -15 -44 -25 -15 -10 -33 -17 -40 -16 -7 2 -14 -8 -16 -22 -2 -14 -9
-45 -17 -70 -7 -25 -16 -62 -20 -82 -3 -21 -10 -38 -16 -38 -6 0 -8 42 -5 113
5 115 -5 121 -23 13 l-9 -51 -1 65 c0 36 8 99 19 140 24 90 25 129 5 136 -24
10 -18 21 29 47 l44 24 -15 -35 c-10 -24 -11 -38 -4 -45 8 -8 11 -5 11 10 0
15 18 31 66 59 37 21 69 45 71 51 7 18 23 16 23 -1 0 -8 -14 -25 -31 -38 -18
-13 -49 -40 -70 -60 -21 -21 -42 -38 -47 -38 -12 0 -35 -45 -31 -59 3 -7 29 9
59 34 78 66 81 68 123 93 40 23 82 28 107 12 17 -10 17 -10 -65 -30 -27 -7
-54 -17 -60 -23 -6 -6 -3 -7 10 -4 11 3 47 11 80 17 33 6 74 16 92 21 29 9 32
13 27 42 -6 33 -15 42 -74 80 -21 14 -35 31 -35 43 0 26 205 224 232 224 10 0
48 20 83 45 64 45 80 52 80 37z m270 -6 c0 -8 -11 -16 -24 -20 -12 -3 -63 -42
-112 -86 -94 -85 -139 -118 -113 -84 38 51 139 150 178 176 49 31 71 35 71 14z
m80 -26 c0 -6 -21 -20 -47 -30 -27 -11 -57 -25 -68 -32 -114 -68 -142 -70 -56
-5 83 63 171 98 171 67z m-620 -109 c0 -8 -86 -83 -142 -122 -19 -14 -21 -19
-9 -33 7 -8 11 -23 7 -31 -8 -22 -43 -18 -56 5 -9 17 -17 20 -46 14 -22 -4
-34 -2 -34 5 0 12 49 35 58 27 9 -10 47 17 81 56 18 21 54 50 80 63 51 27 61
29 61 16z m588 -43 c-5 -13 -33 -30 -78 -48 -14 -6 -56 -30 -95 -55 -66 -42
-105 -55 -105 -37 0 5 8 16 18 25 28 25 168 97 189 97 11 0 28 7 39 15 24 18
37 19 32 3z m-798 -7 c0 -5 -7 -14 -15 -21 -8 -7 -15 -23 -15 -36 0 -26 -1
-27 -24 -18 -22 9 -20 34 6 61 21 23 48 31 48 14z m600 -36 c0 -3 -19 -17 -42
-32 -24 -15 -61 -41 -83 -57 -36 -27 -38 -28 -21 -6 39 49 101 99 124 100 12
0 22 -2 22 -5z m570 -25 c0 -11 10 -40 22 -65 27 -56 18 -67 -23 -26 -17 18
-29 34 -26 37 3 4 1 17 -4 31 -6 17 -6 30 2 39 14 17 29 9 29 -16z m-80 -29
c0 -6 -4 -13 -10 -16 -5 -3 -10 1 -10 9 0 9 5 16 10 16 6 0 10 -4 10 -9z
m-1182 -38 c2 -7 -5 -13 -15 -13 -10 0 -38 -11 -62 -25 -52 -30 -61 -31 -61
-5 0 43 125 82 138 43z m1232 -13 c0 -5 -4 -10 -10 -10 -5 0 -10 5 -10 10 0 6
5 10 10 10 6 0 10 -4 10 -10z m12 -100 c-2 -17 -9 -29 -16 -27 -16 5 -20 48
-5 58 20 12 26 3 21 -31z m78 30 c0 -13 -48 -36 -56 -27 -4 3 -4 13 -1 22 7
17 57 21 57 5z m-6 -74 c3 -13 8 -30 11 -38 3 -8 -3 -13 -18 -14 -20 -1 -23 3
-24 37 -2 44 21 55 31 15z m17 -120 c-6 -8 -9 -21 -5 -30 7 -17 -3 -21 -23 -8
-15 10 -1 71 19 84 17 10 24 -28 9 -46z m-1583 -90 c8 -15 20 -30 28 -33 10
-3 14 -22 14 -60 0 -45 5 -62 30 -96 16 -23 34 -60 39 -82 37 -145 48 -178 64
-186 19 -11 25 9 8 27 -14 15 -23 71 -12 78 5 4 12 -3 16 -14 3 -11 17 -33 31
-49 20 -24 24 -41 26 -101 2 -51 -1 -74 -9 -77 -7 -3 -13 0 -13 7 0 6 -22 34
-50 62 -27 28 -50 58 -50 66 0 9 -7 23 -15 32 -8 9 -41 67 -73 130 -59 114
-59 116 -66 223 -5 84 -3 108 7 105 6 -3 18 -17 25 -32z m1706 -233 c20 -43
34 -173 19 -173 -13 0 -25 28 -18 39 2 5 -12 27 -32 50 -34 41 -45 83 -28 111
13 22 42 9 59 -27z m1333 -686 c-8 -61 5 -155 28 -199 16 -34 19 -52 7 -44
-14 9 -166 25 -325 36 -192 12 -538 62 -603 87 -8 3 12 -32 45 -78 64 -89 139
-215 148 -247 3 -13 -16 -47 -60 -105 l-65 -86 61 -45 c102 -72 101 -70 105
-210 7 -189 -21 -390 -55 -403 -23 -9 -24 1 -3 80 25 100 37 334 21 403 -11
45 -18 54 -91 108 -44 32 -80 60 -80 62 0 1 25 42 55 90 30 49 55 95 55 104 0
10 -12 39 -26 66 -66 124 -196 275 -315 366 -37 29 -67 53 -66 54 1 2 34 -5
72 -14 112 -26 751 -22 935 5 74 11 141 21 149 22 11 1 12 -10 8 -52z m-1296
-209 c6 -24 28 -104 49 -179 34 -122 120 -531 120 -573 0 -34 -34 -12 -122 79
-92 97 -158 143 -235 166 -24 7 -43 15 -43 19 0 3 14 25 30 48 55 73 176 406
166 455 -9 46 22 33 35 -15z m-1026 -134 c22 -37 158 -149 266 -220 73 -48
304 -164 326 -164 23 0 26 -28 5 -57 -11 -15 -31 -66 -45 -113 -40 -130 -105
-240 -143 -240 -7 0 -34 33 -60 73 -25 39 -63 90 -84 113 -50 54 -136 184
-262 394 -135 224 -148 251 -148 300 l0 40 62 -46 c34 -25 71 -61 83 -80z
m-219 70 c-25 -98 -39 -249 -40 -433 l-1 -204 120 -74 c66 -40 124 -79 129
-86 6 -9 -1 -55 -19 -127 l-28 -113 129 -126 c71 -69 180 -175 241 -235 62
-60 110 -112 107 -117 -15 -25 -59 11 -279 231 l-239 239 12 58 c7 32 19 83
26 114 l13 55 -131 71 -131 71 3 163 c2 90 9 209 17 264 7 55 13 101 11 102
-1 1 -172 -218 -380 -488 -208 -269 -382 -489 -386 -487 -5 2 -19 19 -32 38
-33 48 -111 105 -193 139 -38 16 -71 34 -73 39 -2 6 133 112 299 237 328 247
520 407 699 582 63 62 119 113 124 113 4 0 5 -12 2 -26z m534 -259 c25 -7 65
-22 90 -33 99 -44 122 -52 144 -52 13 0 31 -9 41 -20 9 -10 34 -25 54 -31 58
-19 67 -30 39 -51 -30 -23 -39 -23 -95 7 -27 14 -73 35 -105 46 -63 22 -240
129 -246 149 -3 9 1 11 14 5 11 -4 39 -13 64 -20z m636 -287 c53 -35 220 -191
235 -221 12 -20 59 -398 52 -409 -14 -23 -46 13 -198 225 -182 252 -172 228
-167 370 2 79 7 81 78 35z m-263 -119 c49 -39 90 -76 92 -82 6 -25 85 -543 85
-564 0 -14 -8 -24 -22 -29 -20 -6 -40 11 -141 117 -112 118 -267 299 -267 313
0 3 20 30 44 60 44 54 62 93 91 199 8 31 19 57 23 57 4 0 47 -32 95 -71z
m1945 -97 c18 -54 32 -100 32 -103 0 -3 -46 -18 -102 -33 -174 -47 -173 -47
-176 -88 -5 -60 34 -93 146 -122 64 -17 105 -34 132 -56 43 -34 47 -45 26 -69
-26 -29 33 -171 71 -171 17 0 17 -10 -6 -68 -18 -46 -19 -54 -5 -105 8 -30 21
-70 29 -90 17 -42 127 -139 218 -192 37 -22 66 -43 64 -49 -2 -5 -86 -45 -187
-89 -239 -103 -953 -415 -1380 -602 -184 -81 -519 -227 -745 -325 -225 -98
-452 -196 -503 -219 -51 -23 -96 -41 -100 -41 -4 0 -15 23 -25 51 l-18 50 54
59 55 58 -4 88 c-3 82 -4 88 -33 115 -40 36 -39 57 4 99 19 19 35 38 35 43 0
5 -11 22 -25 39 -15 17 -25 42 -25 60 0 50 -30 152 -53 176 -24 26 -65 29
-108 6 -17 -8 -33 -13 -35 -11 -3 2 40 46 95 96 106 98 131 139 131 211 l0 40
-44 0 c-61 0 -159 -46 -279 -131 -54 -39 -100 -69 -101 -67 -6 8 -106 278
-106 287 0 5 190 90 422 189 233 99 743 316 1133 482 1243 530 1360 579 1370
580 6 0 25 -44 43 -98z m333 -23 c43 -15 170 -116 176 -140 3 -10 25 -30 48
-44 75 -44 107 -92 190 -293 44 -104 78 -201 77 -218 0 -17 -18 -84 -40 -149
-38 -116 -62 -155 -62 -100 0 14 -5 35 -10 45 -20 37 -41 40 -153 20 -58 -11
-143 -22 -189 -26 l-83 -6 -43 34 c-57 46 -82 85 -82 131 0 59 15 80 53 72
l32 -6 -33 29 c-22 20 -35 41 -39 68 -4 23 -20 55 -40 79 -32 37 -51 80 -41
90 3 3 31 0 63 -6 41 -7 65 -8 82 0 25 12 31 31 9 31 -7 0 -34 11 -60 25 -36
19 -247 75 -283 75 -3 0 -3 11 -1 24 3 14 1 31 -3 38 -6 8 -9 1 -9 -21 0 -33
0 -34 -37 -28 -42 7 -65 31 -61 62 2 16 29 29 133 65 l130 44 130 -2 c121 -3
132 -5 162 -28 35 -27 43 -66 22 -106 -9 -16 -7 -28 7 -54 l18 -33 -27 -29
c-30 -31 -33 -52 -15 -82 10 -15 10 -26 0 -53 -18 -50 -15 -73 16 -109 16 -18
32 -46 36 -63 15 -66 29 -85 85 -116 31 -18 64 -39 74 -47 9 -8 20 -13 23 -9
13 13 -8 44 -43 62 -52 28 -93 64 -93 83 0 8 -14 37 -31 63 -42 67 -48 118
-19 176 19 38 21 54 15 101 -9 81 -9 112 2 153 12 42 8 51 -27 69 -14 7 -31
22 -39 33 -10 15 -21 18 -44 13 -50 -10 -207 5 -207 19 0 19 68 57 115 65 61
11 79 11 116 -1z m603 -686 c62 -85 63 -89 33 -121 l-26 -27 33 -86 c18 -48
51 -118 74 -155 48 -80 70 -130 89 -199 l13 -50 -4 65 c-6 79 -46 223 -87 308
-17 35 -29 66 -26 68 5 5 67 -88 95 -142 49 -96 79 -374 48 -448 -9 -21 -16
-51 -16 -66 0 -33 -39 -94 -64 -98 -12 -3 -43 22 -95 76 -67 71 -85 84 -147
107 -40 14 -79 34 -88 44 -24 26 -56 147 -56 210 0 45 9 72 50 157 63 129 110
269 110 327 0 50 7 77 21 77 5 0 24 -21 43 -47z m-4014 -550 c0 -3 -24 -31
-53 -62 -52 -54 -97 -143 -97 -191 0 -25 -7 -25 -67 -1 -112 44 -199 56 -400
56 -216 0 -215 -4 -30 70 149 59 310 100 452 114 97 10 138 14 183 20 6 0 12
-2 12 -6z m593 -52 c-3 -55 -10 -62 -67 -68 -39 -5 -46 -3 -46 12 0 30 69 107
94 103 18 -3 21 -9 19 -47z m-452 -68 l40 -88 -31 -25 c-16 -14 -30 -29 -30
-34 0 -21 57 10 152 83 100 76 181 131 194 131 3 0 3 -13 -1 -28 -8 -39 22
-66 64 -57 17 4 31 3 31 -2 0 -12 -162 -160 -230 -210 -66 -49 -116 -100 -107
-110 4 -3 18 4 32 17 24 22 25 22 25 4 0 -11 14 -33 30 -49 32 -31 40 -78 20
-116 -6 -10 -8 -19 -6 -19 10 0 36 59 36 81 0 12 -12 38 -26 56 -15 19 -22 38
-18 43 5 5 37 20 71 33 35 14 76 35 92 46 16 12 34 21 40 21 18 0 60 -94 70
-157 9 -57 8 -58 -26 -96 -20 -22 -32 -45 -29 -55 2 -9 7 -29 10 -44 4 -17 18
-34 36 -43 39 -20 50 -43 38 -74 -5 -14 -8 -39 -8 -56 3 -46 1 -55 -12 -55 -7
0 -28 -16 -48 -35 -26 -26 -50 -37 -89 -45 -37 -7 -68 -21 -98 -46 -37 -31
-43 -40 -43 -74 0 -21 -5 -42 -10 -45 -6 -4 -8 -11 -4 -16 3 -6 4 -16 1 -23
-4 -11 -23 -11 -103 0 -85 12 -105 19 -159 54 -33 22 -73 52 -87 67 -35 36
-75 125 -89 196 -10 48 -9 62 6 99 27 70 34 73 66 36 l28 -33 -5 70 c-4 52 -1
83 11 115 9 25 21 70 25 100 7 49 50 167 72 196 5 6 0 18 -12 29 -19 18 -20
17 -20 -4 0 -12 -4 -29 -10 -39 -9 -15 -76 -169 -95 -217 -6 -15 -10 -7 -16
35 -10 69 7 287 23 309 39 50 142 161 150 161 5 0 27 -39 49 -87z m1813 -760
c185 -367 291 -527 466 -704 186 -188 342 -279 675 -395 165 -58 160 -70 -15
-34 -269 55 -488 171 -692 368 l-76 74 -11 -52 c-15 -69 -14 -143 4 -318 32
-304 92 -632 277 -1512 160 -763 241 -1210 237 -1307 -2 -35 21 -136 -184 812
-252 1161 -361 1665 -406 1880 -46 222 -48 231 -102 354 l-40 94 -23 -99 c-96
-428 -359 -795 -706 -984 -84 -46 -111 -52 -53 -13 70 47 178 135 257 211 325
311 508 744 508 1206 l0 94 -102 189 c-55 103 -115 217 -131 252 -29 61 -30
64 -12 77 10 8 20 14 22 14 1 0 50 -93 107 -207z m-2084 136 c-9 -28 -23 -55
-30 -59 -9 -6 -47 -95 -50 -118 0 -1 11 0 25 4 19 5 26 2 31 -12 15 -49 73
-151 105 -188 62 -70 135 -106 231 -116 46 -5 98 -13 116 -18 28 -9 33 -8 43
10 15 28 31 9 27 -33 -2 -24 -10 -37 -25 -44 -14 -6 -23 -19 -23 -31 0 -47
-104 -113 -189 -122 -88 -8 -222 59 -282 140 -29 41 -82 191 -114 325 -24 103
-8 156 77 246 35 37 66 67 70 67 4 0 -2 -23 -12 -51z m-183 -308 c8 -52 20
-106 28 -122 19 -36 19 -69 1 -69 -36 0 -63 -44 -80 -130 -36 -177 -89 -386
-108 -424 -11 -22 -30 -80 -43 -131 -12 -50 -28 -102 -35 -116 -13 -24 -13
-24 8 -6 27 24 45 13 37 -23 -5 -22 -1 -31 16 -43 23 -17 21 -43 -5 -53 -9 -3
-51 18 -99 50 -76 51 -84 58 -84 88 0 18 -7 56 -15 83 -11 38 -13 70 -6 134 8
81 16 109 25 84 3 -7 12 -22 21 -33 16 -20 17 -19 17 32 2 177 49 336 156 530
67 121 99 191 99 218 0 19 15 30 39 27 11 -2 19 -29 28 -96z m4012 -3827 c155
-35 169 -42 216 -107 27 -38 54 -63 84 -78 24 -11 71 -46 104 -77 108 -102
143 -185 97 -227 -20 -18 -21 -18 -43 2 -12 11 -37 28 -54 37 -18 9 -40 30
-48 46 -11 21 -23 30 -40 30 -14 0 -25 -4 -25 -10 0 -20 -20 -9 -67 37 -78 75
-172 141 -265 186 l-86 42 1 50 c0 28 -2 60 -7 73 -9 28 -10 28 133 -4z m22
-224 c46 -28 93 -60 104 -71 20 -20 20 -20 -33 0 -29 12 -67 21 -85 21 -28 0
-38 7 -65 45 -18 25 -32 48 -32 50 0 14 36 0 111 -45z m94 -111 c72 -35 154
-94 162 -117 4 -9 17 -28 29 -40 13 -13 33 -45 44 -70 12 -26 32 -69 45 -97
70 -149 78 -442 15 -600 -14 -36 -5 -48 -107 140 -62 114 -133 232 -256 426
-8 13 -3 25 19 54 45 60 41 120 -19 238 -26 50 -47 95 -47 100 0 12 51 -3 115
-34z m-849 -69 c67 -128 221 -246 369 -282 69 -17 82 -32 20 -24 -72 10 -135
32 -190 67 -26 16 -50 28 -52 25 -3 -3 0 -26 6 -52 13 -50 6 -68 -30 -79 -11
-4 -26 -20 -35 -36 -20 -39 -34 -33 -51 22 -12 42 -12 96 3 182 6 34 4 37 -18
37 -13 0 -40 -11 -61 -25 -42 -29 -43 -27 -22 60 8 33 15 86 15 118 0 31 2 57
4 57 3 0 21 -31 42 -70z m-671 -87 c-15 -37 -40 -111 -56 -163 -15 -52 -28
-88 -28 -80 -1 17 -95 -108 -119 -158 -14 -28 -14 -38 -3 -68 12 -33 11 -40
-14 -85 -23 -44 -25 -53 -15 -84 6 -18 21 -46 32 -61 19 -24 22 -39 20 -133 0
-58 -8 -150 -17 -203 -8 -53 -16 -120 -16 -148 -1 -30 -6 -49 -12 -47 -15 5
-64 155 -84 257 -21 104 -23 362 -5 466 16 88 99 262 187 394 66 100 144 194
152 186 3 -3 -7 -36 -22 -73z m2050 -106 c-10 -93 -11 -140 -2 -164 15 -40 -6
-23 -80 65 -61 71 -73 92 -73 121 l0 36 81 2 81 3 -7 -63z m314 -93 c25 -41
26 -54 7 -54 -8 0 -19 12 -24 28 -5 15 -13 35 -17 45 -13 31 13 18 34 -19z
m-382 -71 c37 -47 107 -145 155 -217 77 -114 86 -132 73 -145 -11 -11 -19 -12
-39 -3 -13 6 -27 8 -30 5 -3 -4 -6 -36 -6 -72 0 -71 18 -119 64 -180 36 -48
34 -69 -10 -87 -34 -14 -36 -17 -30 -52 3 -20 10 -77 16 -125 5 -48 18 -105
29 -125 10 -20 25 -52 34 -69 l16 -33 -59 -77 c-71 -95 -136 -170 -142 -163
-2 3 -16 67 -31 143 -30 156 -86 335 -159 515 -43 105 -49 127 -40 148 23 48
52 183 58 265 5 74 0 143 -22 271 -5 31 -4 36 12 35 14 -2 20 6 22 26 2 15 7
27 12 27 5 0 39 -39 77 -87z m353 21 c25 -54 30 -78 29 -137 -2 -109 -7 -122
-54 -120 -29 2 -45 -3 -63 -20 -20 -18 -25 -20 -32 -7 -5 8 -27 39 -49 69 -23
30 -41 58 -41 63 0 4 21 -8 47 -28 40 -31 48 -33 61 -21 8 8 17 35 19 60 4 36
1 53 -17 82 -28 45 -21 76 22 104 18 11 37 21 41 21 4 0 21 -30 37 -66z m-907
14 c67 -89 282 -451 333 -562 l23 -50 -30 -56 c-49 -93 -131 -191 -212 -257
-43 -35 -81 -63 -85 -63 -4 0 -20 42 -35 93 -43 138 -130 354 -212 520 l-73
149 62 62 c34 34 79 89 99 123 50 82 90 94 130 41z m-143 7 c0 -15 -58 -96
-98 -137 -52 -54 -74 -63 -42 -18 22 31 40 110 25 110 -14 0 -34 -34 -35 -57
0 -13 -6 -23 -13 -23 -14 0 -53 37 -46 44 90 81 100 86 155 86 30 0 54 -2 54
-5z m-1374 -143 c-1 -104 0 -111 29 -157 37 -60 98 -95 165 -95 79 0 155 46
261 158 94 100 100 89 14 -26 -92 -122 -177 -174 -285 -174 -136 0 -210 86
-210 244 0 55 16 158 24 158 1 0 2 -49 2 -108z m1262 -230 c77 -148 162 -359
207 -515 19 -65 35 -123 35 -128 0 -6 -30 -24 -66 -41 l-66 -31 -27 21 c-25
18 -30 19 -62 5 -19 -8 -55 -28 -81 -44 -36 -24 -56 -30 -88 -27 l-41 3 -4 75
c-8 122 -28 188 -69 227 -20 19 -36 40 -36 47 0 7 14 30 30 51 17 21 30 43 30
50 0 7 23 48 51 91 l52 79 -13 50 c-7 27 -19 62 -26 77 -8 15 -14 35 -14 45 1
19 85 83 111 83 9 0 38 -44 77 -118z m-1528 -170 c0 -147 46 -359 109 -496 18
-41 27 -74 24 -92 -3 -22 -2 -25 6 -14 5 8 11 12 13 10 2 -3 29 -43 60 -90
105 -160 222 -276 383 -381 l90 -59 26 -93 c33 -115 67 -205 80 -213 6 -3 4 7
-5 24 -16 31 -89 263 -84 268 2 1 57 -19 123 -45 l119 -48 28 -78 c32 -86 41
-101 140 -226 37 -48 68 -92 68 -98 0 -7 -10 -9 -27 -5 -312 71 -545 196 -753
404 -122 122 -200 228 -275 372 -113 218 -158 405 -159 658 -1 176 10 304 25
295 5 -4 9 -45 9 -93z m2213 -242 c59 -149 110 -320 136 -454 30 -151 28 -175
-11 -213 -56 -53 -181 -137 -278 -188 l-93 -48 -34 18 c-33 18 -33 19 -33 92
0 41 -5 117 -11 170 -8 67 -8 101 -1 118 9 19 6 33 -14 72 -13 26 -31 74 -39
105 -9 32 -18 63 -20 71 -4 8 28 39 79 79 84 66 175 170 229 263 16 27 32 44
37 39 4 -5 28 -61 53 -124z m-1119 -79 c19 -11 36 -35 52 -76 29 -70 55 -167
48 -174 -10 -10 -141 31 -214 67 l-75 37 -3 45 c-2 39 1 49 25 72 61 58 103
66 167 29z m27 -255 l82 -23 29 -118 c15 -65 26 -120 23 -123 -3 -3 -27 2 -53
11 -26 9 -55 17 -64 17 -15 0 -18 9 -18 47 0 73 -40 101 -104 72 -33 -15 -67
-5 -105 30 -30 28 -31 31 -25 92 9 96 5 94 84 54 38 -19 106 -46 151 -59z
m668 30 c13 -52 14 -76 3 -61 -4 6 -25 20 -47 31 -21 12 -41 26 -42 31 -3 8
50 40 68 42 4 1 12 -19 18 -43z m-524 -34 c-7 -8 -35 7 -35 18 0 6 7 6 20 -2
10 -7 17 -14 15 -16z m217 -46 c21 -9 58 -16 83 -16 25 0 56 -7 68 -15 19 -12
30 -12 62 -3 22 6 47 17 55 24 39 32 81 -17 45 -52 -22 -22 -19 -40 11 -63 24
-19 28 -32 40 -134 7 -61 13 -130 14 -151 l0 -39 -24 22 c-13 12 -29 43 -36
67 -7 25 -22 56 -32 70 -30 38 -111 74 -181 81 -39 3 -70 12 -82 23 -19 17
-23 17 -90 -1 -130 -36 -122 -36 -134 7 -12 44 -41 182 -41 193 0 14 203 3
242 -13z m1186 -45 c9 -20 27 -40 39 -47 82 -40 85 -94 12 -215 -27 -46 -74
-115 -104 -154 -64 -83 -222 -242 -231 -232 -4 3 -1 26 6 49 6 24 14 124 17
223 l5 180 62 65 c34 36 82 93 106 127 48 69 57 70 88 4z m-1943 -81 c14 -5
47 -32 73 -59 26 -26 57 -51 68 -55 12 -4 27 -19 34 -35 6 -16 25 -41 41 -57
35 -33 36 -42 7 -46 -22 -3 -23 -7 -21 -81 1 -42 5 -86 8 -97 8 -24 10 -24
-56 -1 -100 34 -187 78 -192 97 -13 46 -67 297 -67 314 0 28 57 38 105 20z
m1655 -277 c0 -119 -21 -288 -41 -325 -14 -27 -162 -121 -262 -168 -89 -41
-259 -100 -289 -100 -20 0 -20 7 3 67 9 23 85 115 143 173 21 20 37 48 40 65
5 43 16 64 36 75 24 13 36 66 19 86 -14 18 -22 12 80 65 46 24 122 74 170 111
47 36 89 67 94 67 4 1 7 -52 7 -116z"/>
<path d="M2165 10762 c-27 -15 -51 -30 -53 -34 -2 -5 -15 -8 -28 -8 -28 0 -27
2 -13 -39 11 -32 23 -39 34 -21 3 6 21 10 39 10 19 0 39 6 45 13 6 8 29 22 51
32 43 19 47 30 26 58 -18 23 -42 21 -101 -11z"/>
<path d="M1624 10728 c-12 -13 -72 -43 -133 -67 -138 -54 -165 -73 -157 -112
7 -37 -9 -38 -46 -2 -27 26 -28 26 -28 5 0 -11 -5 -24 -12 -28 -6 -4 13 -19
48 -35 80 -39 88 -38 80 9 -8 51 14 72 122 111 45 17 100 41 122 53 37 21 42
22 66 8 16 -9 41 -43 62 -82 19 -38 38 -68 43 -68 17 0 9 53 -13 88 -13 20
-34 59 -48 87 -21 42 -30 50 -55 53 -21 1 -37 -5 -51 -20z"/>
<path d="M2036 10631 c-4 -5 -2 -12 3 -15 5 -4 12 -2 15 3 4 5 2 12 -3 15 -5
4 -12 2 -15 -3z"/>
<path d="M2084 10595 c11 -8 23 -15 28 -15 4 0 13 -11 20 -23 l13 -24 55 34
c42 25 50 33 32 33 -13 0 -36 -10 -52 -22 l-29 -21 -21 26 c-12 15 -31 27 -43
27 -22 -1 -22 -1 -3 -15z"/>
<path d="M1600 10545 c-14 -8 -49 -22 -77 -31 -29 -8 -55 -20 -59 -25 -7 -12
15 -69 27 -69 20 0 199 103 199 115 0 27 -51 32 -90 10z"/>
<path d="M1685 10465 c-19 -14 -18 -15 20 -11 42 3 55 19 20 24 -11 1 -29 -4
-40 -13z"/>
<path d="M1350 10430 c-8 -5 -28 -10 -44 -10 -21 0 -27 -3 -20 -10 12 -12 104
8 104 22 0 11 -22 10 -40 -2z"/>
<path d="M2031 10351 c-33 -31 -36 -38 -22 -60 7 -11 15 -6 40 20 17 19 31 39
31 46 0 24 -19 22 -49 -6z"/>
<path d="M2205 10352 c9 -18 15 -47 13 -64 -3 -26 -10 -33 -48 -47 -25 -10
-74 -31 -110 -48 -111 -52 -213 -87 -263 -89 -41 -2 -50 1 -64 22 -13 20 -14
30 -4 50 21 46 11 47 -24 3 -19 -24 -35 -50 -35 -56 0 -7 -6 -13 -14 -13 -8 0
-17 6 -19 13 -4 7 -6 8 -6 1 -2 -22 51 -129 74 -152 l24 -24 -6 36 c-11 71 31
85 105 33 60 -43 132 -69 132 -49 0 4 -19 15 -42 24 l-43 17 43 0 c33 1 48 -4
61 -20 l17 -21 74 41 c41 22 87 41 103 41 31 0 37 19 7 27 -22 6 -25 20 -10
43 8 12 10 10 11 -10 1 -17 5 -10 13 21 6 25 22 61 36 79 23 29 29 31 47 21
33 -17 70 -13 93 11 27 30 25 39 -9 32 -37 -8 -82 16 -133 69 -39 42 -40 42
-23 9z m-62 -208 c-45 -84 -76 -104 -163 -104 -43 1 -77 7 -99 19 l-34 18 34
20 c19 12 54 26 79 33 67 17 190 62 196 71 3 5 9 9 13 9 5 0 -7 -30 -26 -66z"/>
<path d="M1831 10316 c-11 -13 -9 -17 15 -27 45 -17 104 -23 104 -11 0 31 -99
62 -119 38z"/>
<path d="M2130 9939 c-62 -22 -129 -74 -113 -90 6 -6 22 3 45 24 41 39 148 73
167 54 8 -8 14 -8 23 1 8 8 5 14 -16 22 -35 13 -40 12 -106 -11z"/>
<path d="M3890 8541 c-59 -9 -68 -15 -76 -56 -14 -78 44 -155 117 -155 52 0
73 -12 89 -50 17 -40 4 -52 -21 -19 -18 25 -22 26 -60 16 -68 -17 -62 -43 18
-82 61 -29 163 16 163 72 0 63 -40 96 -133 109 -55 7 -77 31 -77 82 0 40 15
34 35 -14 15 -36 46 -45 86 -24 19 11 19 12 -7 58 -15 26 -34 53 -42 60 -17
13 -22 13 -92 3z"/>
<path d="M3642 8429 c-76 -22 -94 -139 -38 -254 43 -86 88 -113 171 -100 53 7
70 31 81 113 l7 52 -42 0 c-41 0 -41 0 -41 -38 0 -21 -6 -47 -14 -57 -12 -17
-16 -17 -31 -5 -9 7 -23 26 -30 41 -14 26 -13 27 38 61 47 30 52 37 51 69 -1
41 -40 106 -69 115 -40 11 -51 12 -83 3z m54 -104 c4 -22 2 -41 -6 -50 -22
-26 -30 -16 -30 35 0 61 25 71 36 15z"/>
<path d="M3380 8323 c-24 -9 -40 -35 -41 -67 0 -30 -1 -30 -10 -7 -8 21 -14
23 -55 18 -49 -5 -70 -23 -52 -44 19 -23 128 -275 128 -296 0 -18 5 -19 46
-13 25 3 50 8 55 12 12 7 12 41 0 49 -5 3 -21 31 -35 61 -20 44 -26 72 -26
130 0 40 5 76 10 79 12 7 100 -174 109 -225 6 -34 8 -35 49 -34 78 2 79 12 7
161 -35 73 -75 144 -89 158 -24 24 -60 31 -96 18z"/>
<path d="M2754 8199 c-18 -5 -34 -15 -37 -23 -3 -7 11 -47 30 -87 45 -94 120
-278 124 -304 7 -39 -17 -29 -51 23 -36 55 -53 62 -105 42 -38 -15 -39 -32 -5
-83 43 -64 85 -97 123 -97 64 1 121 18 140 41 34 42 8 147 -93 377 -59 131
-58 131 -126 111z"/>
<path d="M3066 8168 c-76 -23 -84 -30 -92 -85 -12 -83 38 -211 102 -262 31
-25 72 -27 141 -6 55 16 73 41 73 99 0 55 -37 160 -75 208 -46 61 -74 69 -149
46z m62 -92 c27 -31 51 -87 66 -157 3 -15 0 -33 -9 -45 -15 -18 -16 -18 -45
16 -45 51 -70 110 -70 161 0 70 13 76 58 25z"/>
<path d="M2145 7913 c-27 -8 -56 -17 -62 -19 -17 -5 -16 -29 7 -184 12 -73 18
-135 15 -138 -8 -8 -165 149 -176 176 -10 26 -46 29 -129 11 -43 -9 -50 -14
-50 -35 0 -13 41 -114 90 -223 50 -110 90 -204 90 -209 0 -25 28 -33 74 -21
38 9 46 15 46 34 0 12 -9 34 -21 48 -21 27 -91 173 -104 217 -5 18 14 4 74
-55 45 -44 94 -97 108 -118 25 -36 28 -38 67 -31 46 7 96 30 96 43 0 5 -9 28
-19 52 -18 42 -55 258 -46 268 4 4 60 -110 113 -231 18 -42 25 -48 51 -48 70
0 100 32 66 70 -17 19 -138 279 -165 355 -16 43 -22 50 -47 52 -15 1 -50 -5
-78 -14z"/>
<path d="M2503 7613 c-24 -5 -38 -36 -31 -70 2 -14 14 -19 50 -21 l47 -3 -5
38 c-10 68 -8 66 -61 56z"/>
<path d="M1277 7276 c-3 -7 -8 -34 -12 -58 -9 -59 17 -111 96 -194 40 -40 59
-69 59 -85 0 -23 16 -49 30 -49 3 0 4 23 4 52 -1 45 -6 54 -30 72 -54 39 -105
89 -120 117 -8 16 -14 48 -14 74 0 38 3 45 19 45 28 0 35 17 12 29 -26 15 -38
14 -44 -3z"/>
<path d="M3111 1044 c1 -21 5 -52 9 -69 5 -19 6 -6 3 35 -6 73 -14 94 -12 34z"/>
<path d="M3131 924 c0 -11 3 -14 6 -6 3 7 2 16 -1 19 -3 4 -6 -2 -5 -13z"/>
<path d="M3150 865 c0 -5 5 -17 10 -25 5 -8 10 -10 10 -5 0 6 -5 17 -10 25 -5
8 -10 11 -10 5z"/>
</g>
</svg>
